<svg width="18" height="19" viewBox="0 0 18 19" fill="none" xmlns="http://www.w3.org/2000/svg">
<g id="instagram 1" clip-path="url(#clip0_1994_1676)">
<path id="Vector" d="M17.9824 5.64044C17.9402 4.68403 17.7855 4.02651 17.564 3.45675C17.3354 2.85198 16.9838 2.31052 16.5231 1.8604C16.073 1.40328 15.528 1.04808 14.9302 0.823091C14.3571 0.601536 13.703 0.446873 12.7466 0.404705C11.7831 0.358965 11.4772 0.348389 9.03336 0.348389C6.58953 0.348389 6.28364 0.358965 5.32366 0.401133C4.36725 0.443302 3.70973 0.598102 3.14011 0.81952C2.5352 1.04808 1.99374 1.39971 1.54363 1.8604C1.08651 2.31052 0.731444 2.85555 0.506318 3.45332C0.284763 4.02651 0.1301 4.68046 0.087932 5.63687C0.0421926 6.60042 0.0316162 6.90631 0.0316162 9.35015C0.0316162 11.794 0.0421926 12.0999 0.0843608 13.0599C0.126529 14.0163 0.281329 14.6738 0.502884 15.2435C0.731444 15.8483 1.08651 16.3898 1.54363 16.8399C1.99374 17.297 2.53877 17.6522 3.13654 17.8772C3.70973 18.0988 4.36368 18.2534 5.32022 18.2956C6.28007 18.3379 6.58609 18.3483 9.02993 18.3483C11.4738 18.3483 11.7797 18.3379 12.7396 18.2956C13.696 18.2534 14.3536 18.0988 14.9232 17.8772C16.1329 17.4095 17.0893 16.4531 17.557 15.2435C17.7784 14.6704 17.9332 14.0163 17.9754 13.0599C18.0175 12.0999 18.0281 11.794 18.0281 9.35015C18.0281 6.90631 18.0245 6.60042 17.9824 5.64044ZM16.3614 12.9895C16.3227 13.8686 16.175 14.3433 16.052 14.6598C15.7495 15.4439 15.1271 16.0663 14.343 16.3688C14.0265 16.4918 13.5484 16.6395 12.6727 16.6781C11.7233 16.7204 11.4386 16.7308 9.03693 16.7308C6.63527 16.7308 6.34696 16.7204 5.40099 16.6781C4.52191 16.6395 4.04721 16.4918 3.73074 16.3688C3.34052 16.2245 2.98531 15.996 2.697 15.6971C2.39812 15.4052 2.16956 15.0536 2.02533 14.6633C1.90226 14.3469 1.75461 13.8686 1.71601 12.9931C1.6737 12.0437 1.66326 11.7588 1.66326 9.35715C1.66326 6.95548 1.6737 6.66717 1.71601 5.72134C1.75461 4.84226 1.90226 4.36756 2.02533 4.05109C2.16956 3.66073 2.39812 3.30566 2.70058 3.01721C2.99232 2.71833 3.34395 2.48977 3.73431 2.34568C4.05078 2.22261 4.52905 2.07495 5.40456 2.03622C6.35396 1.99405 6.63884 1.98347 9.04037 1.98347C11.4456 1.98347 11.7303 1.99405 12.6763 2.03622C13.5554 2.07495 14.0301 2.22261 14.3466 2.34568C14.7368 2.48977 15.092 2.71833 15.3803 3.01721C15.6792 3.3091 15.9077 3.66073 16.052 4.05109C16.175 4.36756 16.3227 4.8457 16.3614 5.72134C16.4036 6.67074 16.4142 6.95548 16.4142 9.35715C16.4142 11.7588 16.4036 12.0401 16.3614 12.9895Z" fill="#B3B3B3"/>
<path id="Vector_2" d="M9.03337 4.7262C6.48061 4.7262 4.40942 6.79725 4.40942 9.35015C4.40942 11.903 6.48061 13.9741 9.03337 13.9741C11.5863 13.9741 13.6573 11.903 13.6573 9.35015C13.6573 6.79725 11.5863 4.7262 9.03337 4.7262ZM9.03337 12.3496C7.37727 12.3496 6.03393 11.0064 6.03393 9.35015C6.03393 7.69391 7.37727 6.3507 9.03337 6.3507C10.6896 6.3507 12.0328 7.69391 12.0328 9.35015C12.0328 11.0064 10.6896 12.3496 9.03337 12.3496V12.3496Z" fill="#B3B3B3"/>
<path id="Vector_3" d="M14.9197 4.54335C14.9197 5.13948 14.4364 5.62283 13.8401 5.62283C13.244 5.62283 12.7606 5.13948 12.7606 4.54335C12.7606 3.94709 13.244 3.46387 13.8401 3.46387C14.4364 3.46387 14.9197 3.94709 14.9197 4.54335V4.54335Z" fill="#B3B3B3"/>
</g>
<defs>
<clipPath id="clip0_1994_1676">
<rect width="18" height="18" fill="white" transform="translate(0 0.348389)"/>
</clipPath>
</defs>
</svg>
