<svg width="18" height="19" viewBox="0 0 18 19" fill="none" xmlns="http://www.w3.org/2000/svg">
<g id="pinterest 1" clip-path="url(#clip0_1994_1672)">
<path id="Vector" d="M9.24471 0.348389C4.31136 0.348389 1.68774 3.50978 1.68774 6.95694C1.68774 8.55563 2.58103 10.5492 4.01097 11.1815C4.22811 11.2794 4.34624 11.2378 4.39462 11.0364C4.43737 10.8834 4.62525 10.1465 4.71638 9.79881C4.74451 9.68743 4.72988 9.59068 4.63988 9.48605C4.16511 8.93702 3.78821 7.93685 3.78821 6.99856C3.78821 4.59433 5.69967 2.25985 8.9522 2.25985C11.7648 2.25985 13.7325 4.08693 13.7325 6.70042C13.7325 9.65368 12.1698 11.6968 10.1391 11.6968C9.0152 11.6968 8.17816 10.8147 8.44367 9.72344C8.76431 8.424 9.39321 7.02669 9.39321 6.08952C9.39321 5.24911 8.91844 4.55383 7.94865 4.55383C6.80447 4.55383 5.87631 5.68675 5.87631 7.20782C5.87631 8.17424 6.21832 8.82677 6.21832 8.82677C6.21832 8.82677 5.08652 13.399 4.87614 14.2529C4.52062 15.6986 4.92451 18.0398 4.95939 18.2412C4.98077 18.3526 5.10565 18.3874 5.1754 18.2963C5.28678 18.1501 6.65484 16.1981 7.03848 14.7873C7.17799 14.2731 7.75064 12.1884 7.75064 12.1884C8.12753 12.8691 9.21546 13.4395 10.3743 13.4395C13.8214 13.4395 16.3123 10.4097 16.3123 6.6498C16.2999 3.04513 13.215 0.348389 9.24471 0.348389Z" fill="#B3B3B3"/>
</g>
<defs>
<clipPath id="clip0_1994_1672">
<rect width="18" height="18" fill="white" transform="translate(0 0.348389)"/>
</clipPath>
</defs>
</svg>
