<svg width="18" height="19" viewBox="0 0 18 19" fill="none" xmlns="http://www.w3.org/2000/svg">
<g id="twitter 1" clip-path="url(#clip0_1994_1668)">
<path id="Vector" d="M18 3.76726C17.3306 4.06089 16.6174 4.25551 15.8737 4.35001C16.6388 3.89326 17.2226 3.17551 17.4971 2.31039C16.7839 2.73564 15.9964 3.03601 15.1571 3.20364C14.4799 2.48251 13.5146 2.03589 12.4616 2.03589C10.4186 2.03589 8.77387 3.69414 8.77387 5.72701C8.77387 6.01951 8.79862 6.30076 8.85938 6.56851C5.7915 6.41889 3.07687 4.94851 1.25325 2.70864C0.934875 3.26101 0.748125 3.89326 0.748125 4.57389C0.748125 5.85189 1.40625 6.98476 2.38725 7.64064C1.79437 7.62939 1.21275 7.45726 0.72 7.18614C0.72 7.19739 0.72 7.21201 0.72 7.22664C0.72 9.01989 1.99912 10.5094 3.6765 10.8525C3.37612 10.9346 3.04875 10.974 2.709 10.974C2.47275 10.974 2.23425 10.9605 2.01038 10.911C2.4885 12.3724 3.84525 13.4468 5.4585 13.4816C4.203 14.4638 2.60888 15.0555 0.883125 15.0555C0.5805 15.0555 0.29025 15.042 0 15.0049C1.63462 16.059 3.57188 16.6609 5.661 16.6609C12.4515 16.6609 16.164 11.0359 16.164 6.16014C16.164 5.99701 16.1584 5.83951 16.1505 5.68314C16.8829 5.16339 17.4982 4.51426 18 3.76726Z" fill="#B3B3B3"/>
</g>
<defs>
<clipPath id="clip0_1994_1668">
<rect width="18" height="18" fill="white" transform="translate(0 0.348389)"/>
</clipPath>
</defs>
</svg>
